# xmcd
#
# Track frame offsets:
#	150
#	11995
#	23518
#	35204
#	44686
#	57160
#	66011
#	76407
#	86250
#	98853
#	108878
#	118746
#	128788
#	141422
#	155109
#	167680
#	178326
#	192520
#	207533
#	219721
#
# Disc length: 3085 seconds
#
# Revision: 1
# Processed by: cddbd v1.5.2PL0 Copyright (c) Steve Scherf et al.
# Submitted via: audiograbber 1.83.01
#
DISCID=2c0c0b14
DTITLE=Various Artist - 100 Driving hits - CD 5 in the country
DYEAR=2006
DGENRE=Country
TTITLE0=Tennessee Ernie Ford - Sixteeen tons (1955)
TTITLE1=Marty Robbins - Maybelline (1955)
TTITLE2=Jimmy Dolan - Hot Rod Mama (1951)
TTITLE3=Johnny Cash and the Tennessee Two - I couldn't keep from crying (1960)
TTITLE4=Hank Williams and the Drifting Cowboys - Lovesick Blues (1949)
TTITLE5=Elvis (Presley), Scotty and Bill - I love you because (1956)
TTITLE6=George Jones - Why baby why (1955)
TTITLE7=Jack Guthrie and his Oklahomans - Oklahoma hills (1944)
TTITLE8=Jess Willard - Truck driver's boogie (1951)
TTITLE9=Margret Whiting and Jimmy Wakely with Paul Weston Orch - Slipping around 
TTITLE9=(1949)
TTITLE10=Frankie Lane with Paul Weston Orch and Chorus - I believe (1953)
TTITLE11=Moon Mullican - I'll sail my ship alone (1958)
TTITLE12=Patti Page - Detour (1951)
TTITLE13=Pee Wee King - Slow Poke (1951)
TTITLE14=Red Foley - Chattanoogie Shoe Shine Boy (1949)
TTITLE15=Jimmy Walker - High geared daddy (1950)
TTITLE16=Rex Allen  - Crying in the chapel (1953)
TTITLE17=Slim Whitman - Indian love call (1952)
TTITLE18=Hank Williams and the Drifting Cowboys - Lost highway (1949)
TTITLE19=Hank Snow - Vaya con dios - may god be with you (1957)
EXTD=5 cd set\n(c) 2006 Bellevue Entertainment
EXTT0=
EXTT1=
EXTT2=
EXTT3=
EXTT4=
EXTT5=
EXTT6=
EXTT7=
EXTT8=
EXTT9=
EXTT10=
EXTT11=
EXTT12=
EXTT13=
EXTT14=
EXTT15=
EXTT16=
EXTT17=
EXTT18=
EXTT19=
PLAYORDER=
